<?xml version="1.0" standalone="no"?>
<!DOCTYPE svg PUBLIC "-//W3C//DTD SVG 20010904//EN"
 "http://www.w3.org/TR/2001/REC-SVG-20010904/DTD/svg10.dtd">
<svg version="1.0" xmlns="http://www.w3.org/2000/svg"
 width="500" height="500" viewBox="0 0 511.000000 269.000000"
 preserveAspectRatio="xMidYMid meet">

<g transform="translate(0.000000,269.000000) scale(0.100000,-0.100000)"
fill="#ab193d" stroke="none">
<path d="M255 2418 c-3 -7 -4 -472 -3 -1033 l3 -1020 35 0 35 0 0 1030 0 1030
-33 3 c-20 2 -34 -2 -37 -10z"/>
<path d="M582 1898 l3 -523 88 -3 87 -3 0 221 0 220 220 0 220 0 0 80 0 80
-220 0 -220 0 0 140 0 140 235 0 235 0 0 85 0 85 -325 0 -325 0 2 -522z"/>
<path d="M1360 1943 c0 -456 1 -479 20 -510 27 -44 62 -60 153 -65 l77 -5 0
84 c0 83 0 83 -24 77 -17 -4 -31 1 -45 15 -21 21 -21 28 -21 451 l0 430 -80 0
-80 0 0 -477z"/>
<path d="M1915 2126 c-65 -21 -98 -42 -144 -91 -52 -56 -78 -116 -93 -212 -22
-138 20 -291 102 -373 68 -68 117 -85 240 -85 95 0 111 3 162 28 128 63 198
212 185 395 -12 175 -97 295 -241 337 -60 18 -156 18 -211 1z m179 -160 c86
-36 129 -176 95 -311 -25 -98 -119 -159 -208 -135 -91 24 -134 98 -134 230 0
118 35 186 113 222 26 12 99 9 134 -6z"/>
<path d="M3815 2126 c-62 -20 -97 -41 -137 -83 -49 -52 -74 -103 -94 -192 -15
-64 -16 -90 -6 -162 18 -148 86 -251 200 -302 56 -25 196 -35 257 -18 61 16
130 64 169 118 l34 48 -66 37 -66 37 -34 -40 c-57 -67 -164 -83 -237 -35 -37
24 -75 80 -82 120 l-6 36 246 0 246 0 7 46 c10 70 -3 170 -29 228 -50 109
-147 169 -282 173 -46 2 -97 -3 -120 -11z m192 -156 c38 -23 60 -55 69 -98 l7
-32 -166 0 -166 0 12 35 c14 40 60 93 91 105 39 16 119 11 153 -10z"/>
<path d="M4720 2131 c-47 -15 -95 -43 -132 -79 l-38 -36 0 52 0 52 -90 0 -90
0 0 -314 c0 -172 3 -341 6 -375 l7 -61 84 0 84 0 -2 228 c-3 251 0 264 61 316
37 30 117 56 177 56 l43 0 0 85 0 85 -42 -1 c-24 0 -54 -4 -68 -8z"/>
<path d="M2420 2109 c0 -6 53 -175 117 -375 l117 -365 85 3 85 3 67 233 c37
129 71 241 74 250 9 21 12 12 96 -276 l63 -213 85 3 85 3 118 370 c65 204 118
371 118 373 0 1 -40 2 -90 2 l-89 0 -11 -40 c-26 -95 -130 -453 -133 -456 -2
-2 -29 88 -61 199 -33 111 -65 223 -73 250 l-14 47 -87 0 -87 0 -69 -245 c-39
-135 -72 -245 -76 -245 -3 0 -37 109 -76 243 l-70 242 -87 3 c-60 2 -87 -1
-87 -9z"/>
<path d="M655 1068 c2 -7 40 -150 85 -318 44 -168 88 -329 96 -358 l15 -53 57
3 57 3 80 277 c43 153 82 274 86 270 4 -4 42 -130 85 -279 l78 -273 58 0 c45
0 58 3 62 18 3 9 46 170 96 357 50 187 93 346 95 353 3 9 -11 12 -53 12 l-57
0 -69 -268 c-38 -147 -72 -274 -76 -281 -6 -11 -11 -3 -19 25 -6 21 -41 148
-78 282 l-68 242 -57 0 c-32 0 -58 -2 -58 -5 0 -4 -135 -502 -147 -539 -9 -31
-15 -11 -89 276 l-69 268 -57 0 c-42 0 -56 -3 -53 -12z"/>
<path d="M2650 710 l0 -370 50 0 50 0 0 98 c0 85 3 101 19 116 19 17 22 14
106 -98 l87 -116 72 0 c39 0 66 4 59 8 -6 4 -62 72 -123 152 l-112 145 113
108 113 107 -73 0 -74 0 -93 -97 -93 -98 -1 208 0 207 -50 0 -50 0 0 -370z"/>
<path d="M1837 866 c-85 -23 -134 -75 -162 -169 -66 -223 86 -414 292 -367
111 24 183 131 183 270 0 193 -142 314 -313 266z m150 -118 c41 -38 56 -78 56
-148 1 -120 -53 -185 -146 -177 -56 5 -100 40 -118 95 -17 52 -8 166 17 199
47 64 139 79 191 31z"/>
<path d="M2495 865 c-36 -9 -61 -25 -92 -58 l-43 -46 0 50 0 49 -50 0 -50 0 0
-260 0 -260 50 0 50 0 0 153 c0 209 20 245 148 270 l62 12 0 52 c0 59 1 59
-75 38z"/>
<path d="M3285 869 c-92 -21 -150 -109 -126 -190 18 -61 78 -102 188 -128 91
-22 130 -74 85 -114 -44 -40 -134 -28 -184 25 l-27 29 -41 -21 -41 -21 18 -30
c51 -87 214 -125 313 -74 67 35 102 112 80 179 -17 52 -61 83 -161 113 -97 29
-129 51 -129 87 0 28 17 44 59 56 42 12 94 -4 130 -40 l29 -30 43 25 44 24
-52 50 c-40 38 -62 51 -102 60 -59 12 -70 12 -126 0z"/>
</g>
</svg>
